<?xml version="1.0" encoding="utf-8"?>
<!-- Generator: Adobe Illustrator 26.0.3, SVG Export Plug-In . SVG Version: 6.00 Build 0)  -->
<svg version="1.1" id="Layer_1" xmlns="http://www.w3.org/2000/svg" xmlns:xlink="http://www.w3.org/1999/xlink" x="0px" y="0px"
	 viewBox="0 0 121.3 121.1" style="enable-background:new 0 0 121.3 121.1;" xml:space="preserve">
<style type="text/css">
	.st0{fill:#FFFFFF;}
</style>
<path class="st0" d="M121.3,30.8v59.6c-0.2,1.2-0.3,2.5-0.6,3.7c-3.1,13.6-11.3,22.2-24.8,26c-1.8,0.5-3.6,0.7-5.4,1H30.8
	c-1.2-0.2-2.5-0.3-3.7-0.6C13.5,117.4,4.8,109.2,1,95.8c-0.5-1.8-0.7-3.6-1-5.4V30.8c0.1-0.4,0.2-0.8,0.2-1.2
	c0.4-4.4,1.8-8.7,4-12.5C10.9,5.9,20.8,0.1,33.9,0c17.8-0.1,35.7,0,53.5,0c2.3,0,4.6,0.2,6.8,0.6c13.6,3,22.3,11.3,26.1,24.7
	C120.8,27.1,121,29,121.3,30.8z M60.6,93.8c18.3,0,33.2-14.9,33.2-33.2S78.9,27.4,60.6,27.4S27.5,42.2,27.4,60.5
	C27.5,78.8,42.3,93.7,60.6,93.8L60.6,93.8z M106,25.4c-0.2-5.6-4.8-10-10.4-9.8c-5.3,0.2-9.6,4.4-9.8,9.8c0.2,5.6,4.8,10,10.4,9.8
	C101.5,35,105.8,30.7,106,25.4z M60.7,34.6c-14.4,0-26,11.6-26,26s11.6,26,26,26s26-11.6,26-26S75,34.6,60.7,34.6L60.7,34.6z
	 M93,25.5c0.1,1.6,1.3,2.8,2.9,2.9c1.6,0,2.9-1.3,2.9-2.9s-1.3-2.9-2.9-2.9c0,0,0,0-0.1,0C94.2,22.6,93,23.9,93,25.5L93,25.5z"/>
</svg>
