<?xml version="1.0" encoding="utf-8"?>
<!-- Generator: Adobe Illustrator 26.0.3, SVG Export Plug-In . SVG Version: 6.00 Build 0)  -->
<svg version="1.1" id="Layer_1" xmlns="http://www.w3.org/2000/svg" xmlns:xlink="http://www.w3.org/1999/xlink" x="0px" y="0px"
	 viewBox="0 0 137.4 137.4" style="enable-background:new 0 0 137.4 137.4;" xml:space="preserve">
<style type="text/css">
	.st0{fill:#FFFFFF;}
</style>
<path class="st0" d="M0,119.8V17.7c0.1-0.4,0.3-0.7,0.3-1.1C1.2,8.7,7,2.3,14.8,0.6l3-0.6h102.1l2.3,0.5c9,1.7,15.5,9.6,15.2,18.8
	c0,33,0,66.1,0,99.1c0,1.7-0.2,3.5-0.7,5.2c-2.1,8.4-9.5,14-18.6,14H21.1c-1.4,0-2.9-0.1-4.3-0.2c-8-0.8-14.6-6.7-16.2-14.5L0,119.8
	z M73.4,60.3c0-1,0-2,0-3.1c0.2-1.6-1-3.1-2.7-3.3c-0.2,0-0.4,0-0.5,0c-4,0-8.1,0-12.1,0c-1.6-0.2-3,1-3.1,2.5c0,0.2,0,0.4,0,0.7
	v51.6c0,2.2,1,3.2,3.2,3.2h11.4c2.9,0,3.8-0.9,3.8-3.9c0-8.8,0-17.6,0-26.5c-0.1-3.3,1-6.5,2.9-9.2c2.2-2.9,5.3-3.7,8.8-3.2
	s5.3,2.4,6.5,5.5c1,2.8,1,5.8,1,8.7c0,8.3,0,16.6,0,24.8c0,2.6,1,3.6,3.6,3.6h12.2c2.1,0,3.2-1,3.2-3.1c0-10.2,0.1-20.4-0.1-30.6
	c-0.1-3.4-0.5-6.9-1.4-10.2c-1.5-6.4-5.1-11.4-11.7-13.6c-4.3-1.4-8.8-1.6-13.2-0.8C80.6,54.2,76.4,56.6,73.4,60.3L73.4,60.3z
	 M28.6,83c0,8.5,0,16.9,0,25.4c0,2.6,1,3.5,3.6,3.5h11.1c2.6,0,3.7-1.1,3.7-3.8V57.8c0-2.6-1.2-3.8-3.9-3.8H32.5
	c-2.7,0-3.8,1.1-3.8,3.8C28.6,66.1,28.6,74.6,28.6,83z M37.9,25.7c-6.5-0.1-11.9,5-12,11.5c0,0.1,0,0.1,0,0.2c0,6.6,5.3,12,11.8,12
	c6.6,0,11.9-5.3,12-11.9C49.8,31,44.5,25.7,37.9,25.7L37.9,25.7z"/>
</svg>
