<?xml version="1.0" encoding="utf-8"?>
<!-- Generator: Adobe Illustrator 26.0.3, SVG Export Plug-In . SVG Version: 6.00 Build 0)  -->
<svg version="1.1" id="Layer_1" xmlns="http://www.w3.org/2000/svg" xmlns:xlink="http://www.w3.org/1999/xlink" x="0px" y="0px"
	 viewBox="0 0 185.6 152.7" style="enable-background:new 0 0 185.6 152.7;" xml:space="preserve">
<style type="text/css">
	.st0{fill:#FFFFFF;}
</style>
<path class="st0" d="M184.8,18.3c-6,2.6-12.3,4.4-18.8,5.3c3-0.5,7.5-6,9.2-8.2c2.8-3.4,4.9-7.2,6.2-11.4c0.2-0.3,0.3-0.7,0-1
	c-0.3-0.1-0.7-0.1-1,0.1c-7,3.8-14.5,6.6-22.2,8.5c-0.5,0.2-1.1,0-1.5-0.4c-0.6-0.7-1.3-1.4-2-2c-3.2-2.8-6.9-5-10.8-6.6
	c-5.2-2.1-10.9-3-16.5-2.7c-5.5,0.4-10.8,1.9-15.7,4.4c-4.9,2.6-9.2,6.1-12.7,10.4c-3.6,4.4-6.2,9.6-7.5,15.1
	c-1.2,5.3-1.3,10.7-0.4,16c0.1,0.9,0,1-0.8,0.9C59.8,42.3,34.4,31.4,13.9,8C13,7,12.5,7,11.8,8c-9,13.5-4.6,35.2,6.6,45.8
	c1.5,1.4,3,2.8,4.7,4.1c-5.1-0.4-10.2-1.8-14.8-4.1c-0.9-0.6-1.3-0.2-1.4,0.8c-0.1,1.5,0,2.9,0.2,4.4c1.7,13.7,11.2,26.3,24.2,31.3
	c1.6,0.7,3.2,1.2,4.9,1.5c-3,0.7-6,1.1-14.5,0.4c-1.1-0.2-1.5,0.3-1.1,1.3C27,110.9,40.8,116,51.1,119c1.4,0.2,2.8,0.2,4.1,0.6
	c-0.1,0.1-0.2,0.1-0.2,0.2c-3.4,5.2-15.2,9.1-20.8,11c-10.1,3.6-20.9,5-31.5,4c-1.7-0.2-2-0.2-2.5,0s-0.1,0.7,0.5,1.1
	c2.1,1.4,4.3,2.7,6.6,3.9c6.7,3.6,13.8,6.4,21.1,8.4c37.9,10.5,80.6,2.8,109-25.5c22.3-22.2,30.2-52.8,30.2-83.4
	c0-1.2,1.4-1.9,2.2-2.5c5.7-4.4,10.7-9.6,14.8-15.4c0.7-0.9,1-1.9,1-3v-0.2C185.6,17.8,185.6,18,184.8,18.3z"/>
</svg>
