<?xml version="1.0" encoding="utf-8"?>
<!-- Generator: Adobe Illustrator 26.0.3, SVG Export Plug-In . SVG Version: 6.00 Build 0)  -->
<svg version="1.1" id="Layer_1" xmlns="http://www.w3.org/2000/svg" xmlns:xlink="http://www.w3.org/1999/xlink" x="0px" y="0px"
	 viewBox="0 0 125.3 87.7" style="enable-background:new 0 0 125.3 87.7;" xml:space="preserve">
<style type="text/css">
	.st0{fill:#FFFFFF;}
</style>
<path class="st0" d="M125.3,27.5C125.3,12.3,113,0,97.8,0l0,0H27.5C12.3,0,0,12.3,0,27.5l0,0v32.7c0,15.2,12.3,27.5,27.5,27.5l0,0
	h70.3c15.2,0,27.5-12.3,27.5-27.5l0,0V27.5z M84,46.3L52.5,62c-1.2,0.7-5.4-0.2-5.4-1.6v-32c0-1.4,4.2-2.3,5.5-1.6l30.2,16.4
	C83.9,43.8,85.2,45.6,84,46.3L84,46.3z"/>
</svg>
